<svg xmlns="http://www.w3.org/2000/svg" viewBox="0 0 334 334" role="img" aria-label="DoneMail">
  <path fill="#040000" d="m85.27 216.07-.03 16.87c-.02 10.2 8.25 18.48 18.45 18.48h37.5L86.8 215.26c-.65-.43-1.53.03-1.53.82Z"/>
  <path fill="#040000" d="M250.6 113.23c-.87-1.28-2.66-1.54-3.84-.54l-73.46 62c-2.14 1.81-5.27 1.83-7.44.06l-73.29-59.91c-2.85-2.33-7.13-.31-7.13 3.37l-.06 38.23c0 2.86 1.43 5.54 3.81 7.13l76.44 50.77c2.04 1.36 4.74 1.3 6.72-.13.03-.02.06-.04.09-.07l59.51-40.72c2.05-1.4 4.85-.88 6.25 1.17 1.4 2.05.88 4.85-1.17 6.25l-59.46 40.69c-2.58 1.84-5.63 2.77-8.68 2.77-2.88 0-5.75-.82-8.24-2.47L83.1 173.05c-.75-.5-1.75.04-1.75.94l-.04 23.14c0 3.99 1.99 7.71 5.31 9.92l58.45 38.86c5.47 3.64 11.89 5.58 18.46 5.58h10.95c22.15 0 43.63-8.31 59.53-23.74 11.35-11.02 21.94-26.71 26.76-48.72 0 0 8.53-32.17-14.16-65.72Z"/>
  <path fill="#040000" d="m95.75 105.24 69.63 48.58c3.07 2.14 7.16 2.07 10.15-.18l63.82-47.92c1.85-1.39 1.72-4.21-.25-5.42l-62.29-38.32c-5.69-3.5-12.86-3.52-18.57-.05L95.93 99.77c-2.02 1.23-2.11 4.12-.17 5.47Z"/>
</svg>
